<?xml version="1.0" standalone="no"?>
<!DOCTYPE svg PUBLIC "-//W3C//DTD SVG 20010904//EN"
 "http://www.w3.org/TR/2001/REC-SVG-20010904/DTD/svg10.dtd">
<svg version="1.0" xmlns="http://www.w3.org/2000/svg"
 width="323.000000pt" height="320.000000pt" viewBox="0 0 323.000000 320.000000"
 preserveAspectRatio="xMidYMid meet">

<g transform="translate(0.000000,320.000000) scale(0.100000,-0.100000)"
fill="#000000" stroke="none">
<path d="M887 2867 c-16 -11 -17 -31 -15 -187 l3 -175 184 -3 c127 -2 188 1
197 9 22 18 20 332 -2 353 -13 13 -44 16 -183 16 -118 0 -172 -4 -184 -13z
m313 -182 l0 -125 -135 0 -135 0 0 125 0 125 135 0 135 0 0 -125z"/>
<path d="M987 2753 c-10 -9 -8 -125 2 -141 5 -9 29 -12 82 -10 l74 3 3 78 3
77 -79 0 c-43 0 -82 -3 -85 -7z"/>
<path d="M2107 2873 c-4 -3 -7 -89 -7 -190 l0 -183 193 2 192 3 3 175 c2 156
1 176 -15 187 -18 14 -353 19 -366 6z m321 -190 l-3 -127 -40 0 c-22 0 -84 1
-137 2 l-98 2 0 125 0 125 140 0 141 0 -3 -127z"/>
<path d="M2212 2683 l3 -78 75 0 75 0 3 78 3 77 -81 0 -81 0 3 -77z"/>
<path d="M1410 2760 l0 -110 40 0 40 0 0 110 0 110 -40 0 -40 0 0 -110z"/>
<path d="M1572 2798 l3 -73 65 0 65 0 3 33 c3 31 2 32 -32 32 -35 0 -36 1 -36
40 0 39 -1 40 -35 40 l-36 0 3 -72z"/>
<path d="M1720 2835 c0 -33 2 -35 35 -35 32 0 35 -3 35 -28 0 -42 17 -52 87
-52 l62 0 3 -62 3 -63 53 -3 52 -3 0 100 0 101 -89 0 -90 0 -3 38 -3 37 -72 3
-73 3 0 -36z"/>
<path d="M1720 2685 c0 -33 2 -35 35 -35 33 0 35 2 35 35 0 33 -2 35 -35 35
-33 0 -35 -2 -35 -35z"/>
<path d="M1327 2644 c-4 -4 -7 -38 -7 -76 l0 -68 40 0 41 0 -3 73 -3 72 -30 3
c-17 2 -34 0 -38 -4z"/>
<path d="M1499 2554 c-8 -9 -36 -60 -64 -113 l-50 -96 -149 -3 c-90 -1 -155
-7 -163 -14 -8 -6 -13 -33 -13 -69 l0 -59 129 0 130 0 52 55 c149 158 383 179
556 51 33 -24 70 -58 82 -75 l22 -31 135 0 134 0 0 53 c0 85 -2 86 -175 89
l-150 3 -50 96 c-27 53 -56 104 -64 113 -11 14 -39 16 -181 16 -142 0 -170 -2
-181 -16z"/>
<path d="M866 2415 c-13 -35 4 -45 78 -45 78 0 114 15 103 44 -9 23 -172 24
-181 1z"/>
<path d="M1127 2423 c-4 -3 -7 -19 -7 -35 l0 -28 105 0 105 0 0 35 0 35 -98 0
c-54 0 -102 -3 -105 -7z"/>
<path d="M2030 2394 c0 -33 2 -35 28 -32 22 2 28 8 30 36 3 30 1 32 -27 32
-29 0 -31 -3 -31 -36z"/>
<path d="M2130 2395 l0 -36 53 3 c50 3 52 4 52 33 0 29 -2 30 -52 33 l-53 3 0
-36z"/>
<path d="M2310 2410 c0 -29 33 -41 108 -38 65 3 67 4 70 31 l3 27 -90 0 c-84
0 -91 -2 -91 -20z"/>
<path d="M1569 2322 c-143 -48 -244 -168 -268 -319 -44 -281 202 -517 469
-449 115 29 202 105 258 223 24 52 27 69 27 163 0 99 -2 110 -33 172 -86 175
-283 266 -453 210z m248 -51 c79 -38 137 -97 176 -179 28 -59 32 -77 32 -152
0 -75 -4 -93 -32 -152 -37 -79 -99 -144 -168 -178 -72 -35 -189 -40 -267 -10
-79 29 -150 96 -190 178 -30 61 -33 74 -33 162 0 88 3 101 33 162 63 128 171
197 312 197 63 1 85 -4 137 -28z"/>
<path d="M1583 2249 c-26 -7 -33 -15 -33 -34 0 -24 0 -24 38 -8 115 49 271
-16 316 -132 9 -22 10 -31 3 -20 -29 48 -117 124 -154 134 -51 14 -101 13
-138 -4 l-30 -13 50 -2 c28 -1 43 -4 35 -6 -8 -3 -32 -12 -52 -21 -31 -13 -36
-19 -27 -34 8 -15 14 -17 35 -9 51 20 64 14 64 -29 0 -33 4 -40 25 -45 14 -4
31 -18 37 -31 6 -14 19 -25 29 -25 10 0 21 -4 24 -10 3 -5 -3 -10 -14 -10 -13
0 -26 -12 -36 -30 -8 -16 -27 -33 -40 -36 -22 -5 -25 -12 -25 -51 l0 -45 -32
7 c-55 12 -92 38 -115 84 -27 54 -25 52 -65 60 -24 5 -37 3 -46 -8 -22 -26 -7
89 17 137 26 52 26 52 -5 52 -65 0 -95 -205 -45 -318 52 -117 176 -190 306
-180 75 7 105 21 98 47 -4 18 -7 18 -39 5 -44 -19 -119 -18 -177 2 -52 17
-130 87 -139 122 -5 17 4 11 33 -22 66 -75 169 -108 254 -81 27 8 24 10 -35
15 l-65 5 57 13 c34 8 69 24 90 42 22 20 36 26 44 19 8 -7 21 2 43 28 17 21
31 42 31 48 1 5 7 24 16 40 l14 30 -5 -45 c-4 -25 -15 -59 -25 -77 -11 -19
-15 -35 -9 -38 14 -9 11 -25 -6 -25 -17 0 -19 -9 -6 -29 13 -20 31 -4 63 56
92 168 32 370 -134 453 -51 25 -73 30 -127 29 -36 0 -81 -5 -98 -10z m237
-380 c0 -6 -13 -24 -29 -40 -27 -27 -51 -38 -51 -23 0 8 63 71 73 73 4 0 7 -4
7 -10z"/>
<path d="M1497 2203 c-12 -11 -8 -23 8 -23 8 0 15 7 15 15 0 16 -12 20 -23 8z"/>
<path d="M1455 2160 c-3 -5 -1 -10 4 -10 6 0 11 5 11 10 0 6 -2 10 -4 10 -3 0
-8 -4 -11 -10z"/>
<path d="M1479 2064 c-24 -27 -39 -60 -39 -82 0 -15 5 -18 26 -14 31 6 36 17
32 72 -3 40 -4 41 -19 24z"/>
<path d="M1536 2053 c-17 -63 -16 -68 3 -33 23 39 25 50 12 50 -5 0 -12 -8
-15 -17z"/>
<path d="M1835 1690 c-9 -28 -4 -31 18 -15 15 11 15 14 3 24 -12 10 -16 8 -21
-9z"/>
<path d="M2360 2160 l0 -110 65 0 65 0 0 30 c0 27 -3 30 -30 30 -30 0 -30 1
-30 54 0 52 1 55 28 58 19 2 27 9 27 23 0 18 -8 20 -62 23 l-63 3 0 -111z"/>
<path d="M867 2235 c-14 -35 3 -46 67 -43 58 3 61 4 61 28 0 24 -3 25 -61 28
-48 2 -63 0 -67 -13z"/>
<path d="M1060 1898 c0 -236 1 -255 20 -286 31 -51 70 -62 221 -62 l132 0 -57
60 c-124 130 -166 323 -105 485 11 28 19 51 19 53 0 1 -52 2 -115 2 l-115 0 0
-252z"/>
<path d="M2070 2145 c0 -3 9 -34 21 -68 17 -51 20 -80 17 -162 -3 -91 -7 -107
-40 -178 -25 -51 -56 -96 -92 -132 l-55 -55 131 0 c112 0 138 3 174 20 70 35
74 50 74 334 l0 246 -115 0 c-63 0 -115 -2 -115 -5z"/>
<path d="M930 2051 c0 -47 -2 -51 -23 -51 -30 0 -47 -18 -47 -50 0 -32 17 -50
46 -50 19 0 23 -6 26 -37 3 -35 6 -38 33 -38 l30 0 0 135 0 135 -32 3 -33 3 0
-50z"/>
<path d="M2360 1906 l0 -56 36 0 35 0 -3 53 c-3 51 -4 52 -35 55 l-33 3 0 -55z"/>
<path d="M866 1722 c-14 -42 2 -53 68 -50 60 3 61 3 61 33 0 30 0 30 -62 33
-53 3 -62 0 -67 -16z"/>
<path d="M2367 1733 c-4 -3 -7 -30 -7 -58 0 -36 -8 -66 -24 -98 l-25 -46 57
-3 57 -3 3 -132 3 -133 -141 0 -140 0 0 110 0 110 -55 0 -55 0 0 -34 c0 -34
-1 -35 -47 -38 -46 -3 -48 -4 -51 -35 -3 -28 -7 -32 -35 -35 -29 -3 -32 -6
-32 -38 l0 -35 108 -3 c95 -2 107 -5 107 -20 0 -38 18 -42 201 -42 138 0 179
3 188 14 8 9 11 69 9 192 l-3 179 -27 3 c-25 3 -28 7 -28 43 0 37 2 39 30 39
28 0 30 3 30 35 l0 35 -58 0 c-32 0 -62 -3 -65 -7z"/>
<path d="M874 1577 c-2 -7 -3 -94 -2 -192 l3 -180 184 -3 c127 -2 188 1 197 9
11 9 14 43 14 140 l0 129 -30 0 -30 0 0 -110 0 -110 -140 0 -140 0 0 135 0
135 61 0 60 0 -21 30 c-20 28 -26 30 -86 30 -43 0 -66 -4 -70 -13z"/>
<path d="M1412 1448 c3 -29 7 -33 35 -36 28 -3 32 -7 35 -35 3 -28 7 -32 33
-32 l30 0 3 68 3 67 -71 0 -71 0 3 -32z"/>
<path d="M1634 1411 l6 -70 -32 -3 -33 -3 -3 -67 -3 -68 36 0 c32 0 35 2 35
29 0 27 3 30 38 33 35 3 37 5 40 40 l3 37 72 3 72 3 3 68 3 67 -41 0 c-39 0
-40 -1 -40 -35 0 -33 -2 -35 -35 -35 -33 0 -35 2 -35 35 0 35 0 35 -46 35
l-47 0 7 -69z"/>
<path d="M990 1390 l0 -81 78 3 77 3 3 78 3 77 -81 0 -80 0 0 -80z"/>
<path d="M2212 1393 l3 -78 78 -3 77 -3 0 81 0 80 -80 0 -81 0 3 -77z"/>
<path d="M1324 1327 c-3 -8 -4 -39 -2 -68 l3 -54 83 -3 82 -3 0 30 c0 28 -3
30 -42 33 -41 3 -43 5 -48 38 -4 31 -9 35 -38 38 -21 2 -34 -2 -38 -11z"/>
<path d="M1720 1230 c0 -28 3 -30 35 -30 32 0 35 2 35 30 0 28 -3 30 -35 30
-32 0 -35 -2 -35 -30z"/>
<path d="M225 848 c-32 -17 -45 -39 -45 -75 0 -41 34 -76 93 -96 29 -9 43 -20
45 -35 5 -31 -26 -43 -77 -30 -46 12 -68 2 -58 -26 9 -22 49 -36 100 -36 121
0 156 121 49 170 -72 33 -77 36 -80 53 -5 24 29 37 73 27 45 -10 55 -6 55 21
0 12 -10 23 -26 29 -34 13 -104 12 -129 -2z"/>
<path d="M1205 848 c-32 -17 -45 -39 -45 -75 0 -41 34 -76 93 -96 29 -9 43
-20 45 -35 5 -31 -26 -43 -77 -30 -46 12 -68 2 -58 -26 9 -22 49 -36 100 -36
121 0 156 121 49 170 -72 33 -77 36 -80 53 -5 24 29 37 73 27 45 -10 55 -6 55
21 0 12 -10 23 -26 29 -34 13 -104 12 -129 -2z"/>
<path d="M2214 851 c-12 -5 -29 -20 -38 -33 -35 -50 -10 -98 71 -134 29 -13
56 -31 60 -40 9 -23 -26 -47 -56 -39 -77 19 -81 19 -81 -8 0 -20 7 -28 36 -37
55 -19 124 -7 151 25 47 54 24 110 -61 146 -58 23 -70 37 -56 60 8 12 62 16
99 7 20 -5 38 29 23 44 -15 15 -119 21 -148 9z"/>
<path d="M478 755 c-53 -30 -61 -130 -13 -175 30 -29 111 -39 139 -17 27 20
11 37 -34 37 -47 0 -70 21 -70 64 0 43 16 56 66 56 47 0 62 13 44 35 -16 19
-96 19 -132 0z"/>
<path d="M685 757 c-29 -22 -9 -40 38 -34 46 6 67 0 67 -19 0 -10 -12 -14 -39
-14 -53 0 -91 -31 -91 -74 0 -19 8 -40 18 -49 23 -21 71 -22 99 -2 19 13 22
13 27 -1 4 -9 15 -14 28 -12 22 3 23 7 23 89 0 112 -12 129 -95 129 -31 0 -64
-6 -75 -13z m105 -120 c0 -20 -22 -37 -47 -37 -22 0 -33 27 -16 43 12 13 63 7
63 -6z"/>
<path d="M917 763 c-4 -3 -7 -50 -7 -104 0 -90 2 -98 20 -104 36 -11 50 12 50
79 0 64 11 86 42 86 21 0 27 -21 30 -105 3 -53 6 -60 25 -63 34 -5 47 30 39
112 -4 43 -13 77 -23 88 -20 23 -85 24 -104 2 -11 -14 -13 -14 -21 0 -9 16
-39 22 -51 9z"/>
<path d="M1427 763 c-4 -3 -7 -48 -7 -98 0 -72 3 -95 16 -106 30 -24 48 1 54
74 5 70 17 91 46 85 16 -3 20 -15 24 -77 6 -82 23 -107 55 -81 24 20 17 160
-10 190 -20 22 -65 26 -97 9 -14 -8 -23 -8 -31 0 -12 12 -40 15 -50 4z"/>
<path d="M1695 757 c-29 -22 -9 -40 38 -34 45 6 67 0 67 -18 0 -7 -18 -14 -45
-18 -25 -2 -55 -13 -65 -22 -25 -23 -26 -76 -2 -98 23 -21 71 -22 97 -3 16 12
21 11 33 -1 8 -8 22 -13 31 -11 13 3 17 19 19 84 2 69 0 84 -18 107 -19 24
-28 27 -79 27 -32 0 -65 -6 -76 -13z m105 -120 c0 -20 -22 -37 -47 -37 -16 0
-23 6 -23 19 0 11 6 22 13 24 24 10 57 7 57 -6z"/>
<path d="M1924 757 c-2 -7 -3 -76 -2 -152 l3 -140 30 0 c29 0 30 2 33 51 l3
52 28 -11 c65 -24 115 21 115 104 0 66 -27 103 -78 107 -21 2 -44 -2 -52 -9
-11 -9 -18 -9 -26 -1 -16 16 -47 15 -54 -1z m135 -51 c17 -21 10 -87 -11 -100
-28 -17 -52 5 -56 48 -4 41 11 66 38 66 10 0 23 -6 29 -14z"/>
<path d="M2445 757 c-29 -22 -9 -40 38 -34 46 6 67 0 67 -19 0 -10 -12 -14
-39 -14 -53 0 -91 -31 -91 -74 0 -19 8 -40 18 -49 23 -21 71 -22 99 -2 19 13
22 13 27 -1 4 -9 15 -14 28 -12 22 3 23 7 23 89 0 112 -12 129 -95 129 -31 0
-64 -6 -75 -13z m105 -120 c0 -20 -22 -37 -47 -37 -22 0 -33 27 -16 43 12 13
63 7 63 -6z"/>
<path d="M2650 751 c0 -27 39 -152 56 -178 14 -23 46 -29 78 -17 20 8 81 193
68 206 -6 6 -20 8 -33 6 -21 -3 -27 -13 -45 -88 l-21 -85 -11 40 c-6 22 -13
56 -17 75 -9 45 -22 60 -51 60 -17 0 -24 -6 -24 -19z"/>
<path d="M2909 741 c-23 -23 -29 -38 -29 -71 0 -79 41 -120 119 -120 42 0 82
23 66 39 -5 5 -32 11 -60 13 -37 2 -51 7 -53 20 -3 14 7 18 65 20 l68 3 -1 39
c-2 55 -38 86 -100 86 -37 0 -51 -6 -75 -29z m105 -27 c26 -25 19 -34 -30 -34
-33 0 -43 3 -38 13 24 41 42 47 68 21z"/>
</g>
</svg>
