<?xml version="1.0" standalone="no"?>
<!DOCTYPE svg PUBLIC "-//W3C//DTD SVG 20010904//EN"
 "http://www.w3.org/TR/2001/REC-SVG-20010904/DTD/svg10.dtd">
<svg version="1.0" xmlns="http://www.w3.org/2000/svg"
 width="320.000000pt" height="320.000000pt" viewBox="0 0 320.000000 320.000000"
 preserveAspectRatio="xMidYMid meet">

<g transform="translate(0.000000,320.000000) scale(0.100000,-0.100000)"
fill="#000000" stroke="none">
<path d="M272 2974 c-22 -15 -22 -17 -22 -304 0 -276 1 -290 19 -300 12 -6
129 -10 310 -10 278 0 292 1 311 20 19 19 20 33 20 298 0 258 -1 280 -18 295
-16 15 -53 17 -308 17 -246 0 -293 -2 -312 -16z m538 -304 l0 -210 -230 0
-230 0 0 210 0 210 230 0 230 0 0 -210z"/>
<path d="M444 2787 c-2 -7 -3 -65 -2 -128 l3 -114 135 0 135 0 0 125 0 125
-133 3 c-103 2 -134 0 -138 -11z"/>
<path d="M2300 2975 c-9 -10 -11 -90 -11 -302 1 -256 3 -289 18 -300 13 -10
90 -13 303 -13 242 0 289 2 308 16 22 15 22 17 22 294 0 274 0 280 -22 300
-21 19 -34 20 -314 20 -243 0 -294 -2 -304 -15z m540 -305 l0 -210 -230 0
-230 0 0 210 0 210 230 0 230 0 0 -210z"/>
<path d="M2477 2793 c-9 -8 -9 -216 -1 -237 5 -13 27 -16 135 -16 l129 0 0
130 0 130 -128 0 c-71 0 -132 -3 -135 -7z"/>
<path d="M1152 2798 l3 -183 39 -3 c22 -2 50 -1 63 3 l23 5 -2 178 -3 177 -63
3 -62 3 2 -183z"/>
<path d="M1415 2967 c-3 -7 -4 -60 -3 -118 l3 -104 115 0 115 0 3 53 3 52 -60
0 -60 0 -3 63 -3 62 -53 3 c-37 2 -54 -1 -57 -11z"/>
<path d="M1662 2923 l3 -58 57 -3 c63 -3 64 -5 70 -82 l3 -35 117 -3 117 -3 3
-112 3 -112 85 0 85 0 0 165 0 165 -147 3 -147 3 -3 62 -3 62 -123 3 -123 3 3
-58z"/>
<path d="M1664 2727 c-3 -8 -4 -36 -2 -63 l3 -49 55 0 55 0 0 60 0 60 -53 3
c-38 2 -54 -1 -58 -11z"/>
<path d="M1005 2597 c-3 -7 -4 -60 -3 -118 l3 -104 65 0 65 0 0 115 0 115 -63
3 c-45 2 -64 -1 -67 -11z"/>
<path d="M1310 2468 c-24 -17 -53 -62 -114 -183 -58 -114 -88 -164 -106 -172
-18 -9 -93 -13 -256 -13 -207 0 -232 -2 -246 -17 -18 -21 -32 -138 -22 -189
l6 -34 209 0 209 0 23 27 c121 145 233 223 387 271 190 58 401 25 576 -89 36
-23 100 -80 143 -126 l78 -83 212 0 211 0 0 98 c0 151 17 142 -268 142 -200 0
-241 2 -260 16 -13 9 -59 87 -103 175 -63 126 -86 164 -112 179 -30 18 -51 20
-283 20 -244 0 -252 -1 -284 -22z"/>
<path d="M244 2226 c-3 -14 -3 -34 1 -45 6 -20 14 -21 133 -21 145 0 176 11
170 58 l-3 27 -147 3 -147 3 -7 -25z"/>
<path d="M677 2244 c-4 -4 -7 -29 -7 -56 l0 -48 176 0 175 0 -3 53 -3 52 -166
3 c-91 1 -168 -1 -172 -4z"/>
<path d="M2177 2243 c-4 -3 -7 -28 -7 -55 l0 -48 50 0 50 0 0 55 0 55 -43 0
c-24 0 -47 -3 -50 -7z"/>
<path d="M2339 2243 c0 -4 -1 -28 -2 -53 l-2 -45 93 -3 93 -3 -3 53 -3 53 -87
3 c-49 1 -88 -1 -89 -5z"/>
<path d="M2647 2243 c-13 -13 -7 -43 13 -63 18 -18 33 -20 150 -20 l130 0 0
45 0 45 -143 0 c-79 0 -147 -3 -150 -7z"/>
<path d="M1460 2085 c-229 -52 -430 -253 -485 -486 -8 -35 -15 -107 -15 -160
0 -181 61 -337 182 -464 73 -78 144 -125 246 -163 60 -23 81 -26 207 -26 126
0 147 3 206 25 187 72 327 219 395 414 25 70 28 95 28 205 1 143 -19 226 -81
340 -72 130 -233 259 -380 306 -71 22 -225 27 -303 9z m296 -70 c198 -66 347
-228 399 -430 19 -75 19 -212 0 -294 -45 -188 -189 -352 -370 -421 -75 -28
-218 -38 -307 -21 -202 39 -389 218 -443 427 -19 73 -20 251 -1 321 43 162
159 308 306 383 124 65 287 78 416 35z"/>
<path d="M1455 1956 c-73 -23 -84 -33 -76 -63 9 -32 14 -32 91 -4 199 73 472
-67 515 -264 5 -25 1 -21 -28 24 -52 81 -123 148 -196 184 -59 29 -74 32 -156
32 -74 0 -97 -4 -132 -23 -24 -12 -43 -23 -43 -25 0 -1 42 -1 92 1 l93 2 -55
-18 c-74 -25 -120 -50 -120 -65 0 -7 6 -21 13 -31 11 -16 15 -16 49 -1 21 8
53 15 73 15 l35 0 0 -65 c0 -55 3 -65 18 -65 29 0 78 -36 91 -68 12 -30 35
-42 79 -42 37 0 25 -18 -19 -25 -31 -5 -42 -13 -50 -33 -15 -39 -47 -70 -85
-82 -34 -12 -34 -12 -34 -76 l0 -64 -43 0 c-93 0 -191 78 -219 174 -6 23 -13
42 -14 44 -3 4 -115 31 -131 32 -8 0 -13 -15 -14 -42 -1 -42 -1 -42 -10 -13
-25 78 -3 203 50 287 l30 47 -36 7 c-49 9 -64 -2 -96 -79 -59 -142 -58 -295 3
-440 54 -128 147 -220 280 -277 83 -35 233 -40 329 -11 39 12 71 23 71 25 0 2
-5 17 -11 34 l-11 31 -47 -18 c-182 -72 -417 8 -512 174 -37 65 -37 90 0 38
49 -68 112 -122 181 -156 54 -27 79 -33 149 -36 90 -3 150 9 172 36 9 10 9 14
2 10 -18 -11 -184 -10 -212 1 -20 7 -11 10 50 15 87 7 157 29 176 57 8 11 19
20 25 20 5 0 19 12 31 26 19 24 21 25 33 9 10 -13 16 -14 34 -5 31 17 96 122
111 180 18 69 33 64 25 -7 -3 -36 -19 -84 -40 -125 -28 -56 -32 -69 -20 -79
21 -17 17 -28 -11 -35 -30 -7 -31 -20 -6 -53 l18 -24 40 54 c52 69 79 124 98
196 20 75 20 212 0 287 -46 175 -186 321 -354 370 -65 19 -218 20 -276 2z
m375 -637 c0 -15 -71 -89 -101 -105 -52 -26 -41 4 23 65 57 54 78 65 78 40z"/>
<path d="M1292 1872 l-24 -18 25 -17 c22 -15 26 -15 31 -1 8 22 7 54 -1 54 -5
0 -19 -9 -31 -18z"/>
<path d="M1220 1800 c0 -5 7 -10 15 -10 8 0 15 5 15 10 0 6 -7 10 -15 10 -8 0
-15 -4 -15 -10z"/>
<path d="M1261 1645 c-28 -24 -52 -75 -65 -137 -7 -32 -4 -33 60 -17 l44 11 0
84 c0 46 -2 84 -4 84 -3 0 -18 -11 -35 -25z"/>
<path d="M1350 1594 c-29 -94 -25 -99 15 -20 19 38 32 73 29 77 -12 21 -24 5
-44 -57z"/>
<path d="M1854 1025 c-10 -40 -1 -49 26 -27 21 17 22 22 11 36 -19 22 -30 20
-37 -9z"/>
<path d="M2742 1982 c-9 -7 -12 -50 -10 -183 l3 -174 100 0 100 0 3 48 c3 51
7 48 -68 51 l-35 1 0 90 0 90 50 5 c43 4 50 8 53 28 6 42 -14 52 -102 52 -44
0 -87 -4 -94 -8z"/>
<path d="M252 1938 c-6 -6 -12 -25 -12 -40 0 -21 6 -31 26 -38 31 -12 164 -13
182 -1 8 5 12 23 10 47 l-3 39 -95 3 c-66 2 -99 -1 -108 -10z"/>
<path d="M564 1372 l2 -408 25 -50 c15 -31 40 -60 67 -79 l44 -30 246 -3 246
-3 -55 45 c-107 88 -203 244 -245 396 -13 47 -18 101 -18 195 0 134 12 203 54
300 l19 45 -193 0 -194 0 2 -408z"/>
<path d="M2245 1763 c56 -144 80 -274 70 -378 -20 -214 -97 -377 -240 -514
l-75 -71 229 0 229 0 53 28 c43 22 59 38 81 81 l28 53 0 409 0 409 -191 0
c-178 0 -191 -1 -184 -17z"/>
<path d="M357 1704 c-4 -4 -7 -45 -7 -91 l0 -83 -43 0 c-56 0 -67 -13 -67 -75
0 -62 11 -75 67 -75 l43 0 0 -57 c0 -76 7 -85 61 -81 l44 3 0 230 0 230 -45 3
c-25 2 -49 0 -53 -4z"/>
<path d="M2730 1381 c0 -90 0 -91 26 -97 15 -4 38 -3 53 2 25 9 26 12 26 94
l0 85 -52 3 -53 3 0 -90z"/>
<path d="M256 1094 c-23 -22 -21 -81 3 -94 21 -11 159 -14 185 -4 23 9 23 99
0 108 -9 3 -51 6 -94 6 -58 0 -83 -4 -94 -16z"/>
<path d="M2744 1102 c-6 -4 -14 -47 -17 -97 -5 -101 -27 -161 -77 -219 l-32
-36 111 0 111 0 0 -220 0 -220 -230 0 -230 0 0 185 0 185 -95 0 -94 0 -3 -57
-3 -58 -70 -3 c-40 -2 -73 -8 -77 -15 -4 -7 -8 -33 -8 -59 l0 -47 -57 -3 -58
-3 0 -55 0 -55 183 -3 182 -2 0 -33 c0 -18 7 -43 16 -55 15 -22 17 -22 310
-22 281 0 295 1 314 20 19 19 20 33 20 314 0 224 -3 296 -13 304 -7 6 -30 12
-52 14 l-40 3 -3 63 -3 62 40 0 c64 0 71 6 71 60 0 34 -4 50 -16 54 -22 8
-167 7 -180 -2z"/>
<path d="M262 848 c-9 -9 -12 -91 -12 -309 0 -296 0 -298 22 -313 19 -14 66
-16 314 -16 269 0 292 1 307 18 15 16 17 48 17 235 l0 217 -50 0 -50 0 0 -185
0 -185 -230 0 -230 0 0 220 0 220 111 0 112 0 -27 27 c-15 15 -35 40 -44 55
-16 28 -17 28 -122 28 -69 0 -110 -4 -118 -12z"/>
<path d="M1152 628 l3 -53 57 -3 57 -3 3 -57 3 -57 50 0 50 0 3 113 3 112
-116 0 -116 0 3 -52z"/>
<path d="M1520 561 l0 -120 -52 -3 -53 -3 0 -110 0 -110 55 0 55 0 3 52 3 52
62 3 62 3 3 62 3 62 122 3 122 3 0 110 0 110 -57 3 -57 3 -3 -58 -3 -58 -62
-3 -63 -3 0 61 0 60 -70 0 -70 0 0 -119z"/>
<path d="M447 654 c-9 -9 -9 -216 -1 -238 5 -13 27 -16 135 -16 152 0 141 -12
137 150 l-3 105 -131 3 c-71 1 -133 -1 -137 -4z"/>
<path d="M2479 648 c-2 -7 -3 -66 -1 -130 l3 -118 130 0 129 0 0 130 0 130
-129 0 c-95 0 -130 -3 -132 -12z"/>
<path d="M1007 434 c-4 -4 -7 -51 -7 -104 0 -71 4 -101 14 -109 9 -8 55 -11
137 -9 l124 3 3 38 c5 55 -12 70 -68 63 -25 -3 -50 -2 -57 2 -6 4 -13 32 -15
62 l-3 55 -60 3 c-34 2 -64 0 -68 -4z"/>
<path d="M1672 311 c-9 -5 -12 -24 -10 -52 l3 -44 58 -3 57 -3 0 49 c0 36 -4
52 -16 56 -23 9 -77 7 -92 -3z"/>
</g>
</svg>
